<svg id="Layer_1" data-name="Layer 1" xmlns="http://www.w3.org/2000/svg" viewBox="0 0 2041 928"><defs><style>.cls-1{fill:#1d62a7;}.cls-2{fill:#efaf4e;}</style></defs><title>ojas logo</title><path class="cls-1" d="M947.1,323.52V471.27c0,53.09-2.56,81.87-30.06,129.2-16,27.5-40.94,56.28-110,108.73l-13.44-4.47c49.89-53.09,60.77-88.27,67.8-114.49C871,557,876.74,477.67,876.74,334.39V290.26c0-24.3-.64-132.4-5.75-165.66-15.35-2.55-65.88-7.67-84.43-8.95L784,102.22c15.35,1.28,90.82,2.55,126,2.55,34.54,0,88.91-1.27,110.65-2.55l-1.92,13.43c-10.87,1.28-46.05,6.4-68.43,8.95-2.56,19.83-3.2,151-3.2,165Z"/><path class="cls-1" d="M1311,541.63c22.39-1.92,44.77-4.48,64.6-9-11.51-33.26-56.93-168.85-67.16-187.4-22.38,0-124.08,4.47-147.75,8.31-3.83,9-38.37,129.84-44.77,179.09,16,4.48,37.1,7,55,9l2.56,13.43c-19.83-1.28-78-2.56-96.58-2.56-16.63,0-59.49,1.28-74.2,2.56l1.92-13.43a493.2,493.2,0,0,0,55-9c23-40.29,150.3-384.4,159.26-408.71-14.07-3.83-35.18-6.39-50.53-8.31l-.64-13.43c19.19,1.28,72.27,2.55,83.15,2.55,26.86,0,90.82-1.27,109.37-2.55l-1.92,13.43c-16.63,1.92-33.9,4.48-48.61,8.31,7.68,28.15,42.85,128.56,67.16,195.72,17.91,49.25,57.56,156.71,87,213,18.54,3.84,37.09,6.4,56.28,9l1.92,13.43c-7.67-1.28-72.27-2.56-106.17-2.56-18.55,0-90.83,1.28-108.1,2.56Zm-72.28-406.79h-1.27c-19.83,56.92-61.41,167.57-67.8,188.68L1304,326.08C1289.92,283.87,1249.63,170,1238.75,134.84Z"/><path class="cls-2" d="M1527.22,617.1c1.28-9,10.23-80,10.23-104.9,0-16.63,3.84-85.7,1.92-101.05l14.71,3.83c-.64,8.32,2.56,44.78,4.48,56.29,17.27,40.93,55,69.72,99.14,69.72,50.53,0,90.82-33.26,90.82-80.59,0-51.81-40.29-77.4-81.87-104.26-62.68-40.93-112.57-76.75-112.57-149,0-49.89,37.1-112.57,131.76-112.57,37.74,0,71,7.68,86.35,11.52,4.47-15.36,7.67-34.54,11.51-51.81l14.71-1.92c-9,63.32-15.35,122.8-15.35,175.25l-14.71-6.4a424.74,424.74,0,0,0-2.56-48.61c-7-23-40.3-57.56-85.07-57.56-55,0-78,35.18-78,64,0,41.57,43.49,64,92.1,94.66,53.09,33.26,106.82,69.08,106.82,149.67,0,88.9-70.36,139.43-157.34,139.43-30.71,0-70.36-6.39-88.27-16-3.2,12.16-9.59,42.86-14.07,66.52Z"/><path class="cls-2" d="M305.59,724.1a11,11,0,0,1,8.08,3.41,11.77,11.77,0,0,1,0,16.45,10.86,10.86,0,0,1-8,3.38,11,11,0,0,1-8.15-3.45,11.52,11.52,0,0,1-3.37-8.37,11.42,11.42,0,0,1,11.39-11.42Zm-9,29.41h17.92v71.42H296.63Z"/><path class="cls-2" d="M330.83,753.51h17.92v7.32a42.85,42.85,0,0,1,11.05-7.15,26.62,26.62,0,0,1,10.12-2,24.51,24.51,0,0,1,18,7.42q6.23,6.3,6.23,18.64v47.2H376.45V793.65q0-12.78-1.14-17a11.63,11.63,0,0,0-4-6.39,11.14,11.14,0,0,0-7-2.2,13.18,13.18,0,0,0-9.33,3.64,19.38,19.38,0,0,0-5.4,10.07q-.8,3.35-.79,14.49v28.65H330.83Z"/><path class="cls-2" d="M411.51,753.51h17.92v7.32a42.82,42.82,0,0,1,11-7.15,26.71,26.71,0,0,1,10.13-2,24.51,24.51,0,0,1,18,7.42q6.22,6.3,6.22,18.64v47.2H457.13V793.65q0-12.78-1.15-17a11.57,11.57,0,0,0-4-6.39,11.16,11.16,0,0,0-7-2.2,13.17,13.17,0,0,0-9.33,3.64,19.46,19.46,0,0,0-5.41,10.07q-.78,3.35-.78,14.49v28.65H411.51Z"/><path class="cls-2" d="M525.73,751.67a37.84,37.84,0,0,1,19,5.06,36.58,36.58,0,0,1,13.89,13.71,37,37,0,0,1,5,18.71,37.5,37.5,0,0,1-5,18.91,36.2,36.2,0,0,1-13.68,13.75,37.77,37.77,0,0,1-19.11,5,35.64,35.64,0,0,1-26.22-10.93A37.87,37.87,0,0,1,501,761.39,35.86,35.86,0,0,1,525.73,751.67Zm.29,16.87a18.45,18.45,0,0,0-13.9,5.81q-5.56,5.8-5.56,14.87,0,9.31,5.49,15.1a19.68,19.68,0,0,0,27.91-.07q5.6-5.84,5.59-15t-5.49-14.94A18.6,18.6,0,0,0,526,768.54Z"/><path class="cls-2" d="M570.6,753.51h18.25l18,42.14,18-42.14h18.17l-30.4,71.42H601.06Z"/><path class="cls-2" d="M706.25,753.51h17.92v71.42H706.25v-7.55a35.15,35.15,0,0,1-10.52,7.19,29.59,29.59,0,0,1-11.44,2.2q-13.85,0-23.94-10.74t-10.09-26.68q0-16.54,9.77-27.11a31.1,31.1,0,0,1,23.73-10.57,30.12,30.12,0,0,1,12.06,2.43,32.91,32.91,0,0,1,10.43,7.29Zm-18.84,14.7a18.08,18.08,0,0,0-13.8,5.88q-5.5,5.88-5.5,15.06t5.59,15.23a18.11,18.11,0,0,0,13.78,6,18.47,18.47,0,0,0,14-5.88q5.55-5.87,5.56-15.39,0-9.33-5.56-15.1A18.71,18.71,0,0,0,687.41,768.21Z"/><path class="cls-2" d="M744.46,727.19h17.92v26.32H773v15.42H762.38v56H744.46v-56h-9.19V753.51h9.19Z"/><path class="cls-2" d="M789.59,724.1a11,11,0,0,1,8.08,3.41,11.34,11.34,0,0,1,3.37,8.27A11.21,11.21,0,0,1,797.7,744a10.82,10.82,0,0,1-8,3.38,11,11,0,0,1-8.15-3.45,11.52,11.52,0,0,1-3.37-8.37,11.4,11.4,0,0,1,11.39-11.42Zm-9,29.41h17.92v71.42H780.63Z"/><path class="cls-2" d="M807.18,753.51h18.26l18,42.14,18-42.14h18.17l-30.39,71.42H837.64Z"/><path class="cls-2" d="M961.67,794.4H904.1a19.19,19.19,0,0,0,6.67,12.12q5.41,4.49,13.81,4.49a23.91,23.91,0,0,0,17.27-7l15.1,7.09a35.64,35.64,0,0,1-13.53,11.85q-7.87,3.84-18.7,3.84-16.82,0-27.38-10.6t-10.57-26.56q0-16.33,10.54-27.14t26.42-10.8q16.88,0,27.44,10.8T961.74,791Zm-17.92-14.11a18,18,0,0,0-7-9.71,20.28,20.28,0,0,0-12.13-3.75A21.46,21.46,0,0,0,911.47,771q-3.56,2.63-6.58,9.25Z"/><path class="cls-2" d="M1016,727.19h17.92v26.32h10.64v15.42h-10.64v56H1016v-56h-9.19V753.51H1016Z"/><path class="cls-2" d="M1125.65,794.4h-57.57a19.19,19.19,0,0,0,6.67,12.12q5.41,4.49,13.81,4.49a23.91,23.91,0,0,0,17.27-7l15.1,7.09a35.64,35.64,0,0,1-13.53,11.85q-7.87,3.84-18.7,3.84-16.82,0-27.38-10.6t-10.57-26.56q0-16.33,10.54-27.14t26.42-10.8q16.88,0,27.44,10.8T1125.72,791Zm-17.92-14.11a18,18,0,0,0-7-9.71,20.28,20.28,0,0,0-12.13-3.75,21.46,21.46,0,0,0-13.15,4.21q-3.56,2.63-6.58,9.25Z"/><path class="cls-2" d="M1210.07,768l-14.92,8.21a22.12,22.12,0,0,0-17.94-7.82q-10.05,0-16.27,6a20.43,20.43,0,0,0-6.21,15.37,19.8,19.8,0,0,0,6,14.88q6,5.76,15.71,5.77,12,0,18.73-8.21l14.13,9.68q-11.47,14.94-32.42,14.94-18.85,0-29.51-11.16a37.12,37.12,0,0,1,9-59,43.16,43.16,0,0,1,20.78-5,42.13,42.13,0,0,1,19.1,4.23A36.28,36.28,0,0,1,1210.07,768Z"/><path class="cls-2" d="M1226.29,725.94h17.79v34.79a40.83,40.83,0,0,1,10.56-6.79,27.3,27.3,0,0,1,10.77-2.27,24.25,24.25,0,0,1,17.92,7.35q6.24,6.38,6.24,18.71v47.2h-17.66V793.62q0-12.4-1.18-16.81a11.74,11.74,0,0,0-4-6.56,11.31,11.31,0,0,0-7.06-2.17,13.32,13.32,0,0,0-9.35,3.61,19.14,19.14,0,0,0-5.42,9.85c-.52,2.14-.78,7.05-.78,14.7v28.69h-17.79Z"/><path class="cls-2" d="M1306.9,753.51h17.92v7.32a42.82,42.82,0,0,1,11-7.15,26.71,26.71,0,0,1,10.13-2,24.51,24.51,0,0,1,18,7.42q6.23,6.3,6.22,18.64v47.2h-17.72V793.65q0-12.78-1.15-17a11.57,11.57,0,0,0-4-6.39,11.16,11.16,0,0,0-7-2.2,13.17,13.17,0,0,0-9.33,3.64,19.46,19.46,0,0,0-5.41,10.07q-.78,3.35-.78,14.49v28.65H1306.9Z"/><path class="cls-2" d="M1421.12,751.67a37.84,37.84,0,0,1,19,5.06A36.58,36.58,0,0,1,1454,770.44a37,37,0,0,1,5,18.71,37.5,37.5,0,0,1-5,18.91,36.2,36.2,0,0,1-13.68,13.75,37.77,37.77,0,0,1-19.11,5A35.64,35.64,0,0,1,1395,815.84a37.87,37.87,0,0,1,1.41-54.45A35.86,35.86,0,0,1,1421.12,751.67Zm.29,16.87a18.45,18.45,0,0,0-13.9,5.81q-5.57,5.8-5.56,14.87,0,9.31,5.49,15.1a19.68,19.68,0,0,0,27.91-.07q5.6-5.84,5.59-15t-5.49-14.94A18.6,18.6,0,0,0,1421.41,768.54Z"/><path class="cls-2" d="M1471.66,725.94h17.93v99h-17.93Z"/><path class="cls-2" d="M1539.41,751.67a37.84,37.84,0,0,1,19,5.06,36.58,36.58,0,0,1,13.89,13.71,37,37,0,0,1,5,18.71,37.5,37.5,0,0,1-5,18.91,36.2,36.2,0,0,1-13.68,13.75,37.76,37.76,0,0,1-19.1,5,35.64,35.64,0,0,1-26.23-10.93,37.87,37.87,0,0,1,1.41-54.45A35.86,35.86,0,0,1,1539.41,751.67Zm.3,16.87a18.45,18.45,0,0,0-13.91,5.81q-5.57,5.8-5.56,14.87,0,9.31,5.49,15.1a18.37,18.37,0,0,0,13.91,5.77,18.57,18.57,0,0,0,14-5.84q5.58-5.84,5.58-15t-5.49-14.94A18.6,18.6,0,0,0,1539.71,768.54Z"/><path class="cls-2" d="M1644.7,753.51h17.86v61.18q0,18.12-7.29,26.65-9.78,11.55-29.47,11.55-10.5,0-17.66-2.62a30.78,30.78,0,0,1-19.37-20.09h19.76a16.41,16.41,0,0,0,6.76,4.56,28,28,0,0,0,9.79,1.55q7.22,0,11.61-2.24a13.44,13.44,0,0,0,6.21-5.77q1.8-3.56,1.8-12.21a29.66,29.66,0,0,1-9.91,6.79,31.47,31.47,0,0,1-11.75,2.07,32.32,32.32,0,0,1-24.29-10.37q-9.91-10.38-9.91-26.26,0-17,10.5-27.31a31.37,31.37,0,0,1,22.72-9.32,30.24,30.24,0,0,1,11.65,2.27,36.82,36.82,0,0,1,11,7.45Zm-18.57,14.9a18.66,18.66,0,0,0-14,5.68,19.67,19.67,0,0,0-5.51,14.28q0,8.93,5.65,14.63a19.08,19.08,0,0,0,14.17,5.72,18.36,18.36,0,0,0,13.76-5.58q5.41-5.58,5.41-14.64T1640.17,774A18.76,18.76,0,0,0,1626.13,768.41Z"/><path class="cls-2" d="M1687.67,724.1a11,11,0,0,1,8.08,3.41,11.34,11.34,0,0,1,3.37,8.27,11.21,11.21,0,0,1-3.34,8.18,10.82,10.82,0,0,1-8,3.38,11,11,0,0,1-8.15-3.45,11.52,11.52,0,0,1-3.37-8.37,11.42,11.42,0,0,1,11.39-11.42Zm-9,29.41h17.92v71.42h-17.92Z"/><path class="cls-2" d="M1784.46,794.4h-57.57a19.18,19.18,0,0,0,6.66,12.12Q1739,811,1747.37,811a23.91,23.91,0,0,0,17.27-7l15.09,7.09a35.61,35.61,0,0,1-13.52,11.85q-7.87,3.84-18.71,3.84-16.8,0-27.37-10.6t-10.57-26.56q0-16.33,10.54-27.14t26.42-10.8q16.86,0,27.44,10.8T1784.53,791Zm-17.92-14.11a18,18,0,0,0-7-9.71,20.29,20.29,0,0,0-12.14-3.75,21.48,21.48,0,0,0-13.15,4.21c-2.36,1.75-4.56,4.83-6.57,9.25Z"/><path class="cls-2" d="M1842.69,763.49l-11.1,11.09q-6.75-6.69-12.27-6.7a7.75,7.75,0,0,0-4.73,1.28,3.86,3.86,0,0,0-1.71,3.19A3.94,3.94,0,0,0,1814,775q1.08,1.22,5.35,3.31l6.56,3.28q10.38,5.13,14.25,10.44A21.75,21.75,0,0,1,1837,820.4q-7,6.38-18.74,6.37-15.63,0-25-12.21l11-12a25.28,25.28,0,0,0,7.39,6,16.3,16.3,0,0,0,7.51,2.26A8.93,8.93,0,0,0,1825,809a4.92,4.92,0,0,0,2.17-3.93q0-4.14-7.81-8.08l-6-3q-17.34-8.73-17.33-21.86a18.94,18.94,0,0,1,6.53-14.47q6.52-6,16.71-6a29,29,0,0,1,23.5,11.82Z"/><path class="cls-2" d="M761.65,267.86A294.42,294.42,0,0,0,196,377.61c18.49-14.5,45.94-30.88,60.07-14.39,22.54,26.29,0,81.7,12.21,61,7.54-12.76,20.1-23,28.6-29q-.44-6.36-.43-12.81c0-106.93,87-193.93,193.94-193.93s193.93,87,193.93,193.93q0,6.7-.45,13.29c6.64,13.68,12.1,23.13,11.72,16.29-.94-16.9,13.15-41.32,44.14-44.14,21.24-1.93,36.74,20.39,44.4,34.64q.69-10,.68-20.08A292.47,292.47,0,0,0,761.65,267.86Z"/><path class="cls-1" d="M775.86,431.89c-7.12-1-7.12-4.07-3.05-5.08s6.1-12.2,3.36-19c-6.79-5.77-1.33-3.37-7.43-12.52-28.45-29.47-53.86-9.14-55.89-1s-4.07,5.08-6.1,12.19,0,20.33,6.1,27.44,1,7.12,1,7.12S661,393.27,657,386.16s2-13.22-3.05-18.3-12.85-1.2-13.2-1c.06-.18.59-2-8.14-1-9.15,1-11.18,9.15-14.23,13.21s-2,12.2-2,12.2-30.49,32.52-31.51,34.55-3,2-3-1,4.07-8.13,1-21.35c-8.13-20.32-36.59-23.37-48.79-13.21s-11.18,34.56-9.14,35.57,8.13,5.08-1,5.08-10.16-8.13-10.16-8.13,12.19-23.37,11.18-35.57-9.15-23.37-30.49-27.44-28.46,23.38-30.49,25.41-3.85,9.86,0,15.24S469,414,468.93,413.6c5.07,6.4-1,11.18-1,11.18s-17.27,0-25.4,5.08c-17.28,24.39-24.4,26.42-24.4,22.36s-6.09-22.36-28.45-23.38-26.43,17.28-28.46,20.33-3.05,8.13-2,11.18,6.1,3,1,10.16C347,473.56,348,457.3,349,456.28c2-6.1,1-12.19-1-13.21s6.1-17.28,0-24.39c-40.65-36.59-64-2-67.08,4.06s-5.08,16.26,2,28.46c13.21,16.26,5.08,13.21,5.08,13.21-33.54-5.08-33.54-30.49-36.59-29.47s-5.08-3.05-5.08-3.05,12.19-8.13,13-26.63c-.23-25.61-4.87-35.37-27.23-36.38s-26.42,26.42-26.42,26.42c-3.05,0-5.09,9.15-3.05,11.18,3.87,3.87,3.05,7.12,6.09,10.17s3.05,9.14,1,16.26S196,440.15,196,440.15c.47,45.87,78.81,260.05,306.6,247.3S777.89,469.49,782,455.26,783,432.91,775.86,431.89ZM457.75,520.31c-2,3.05-7.11-3-7.11-14.23s-2-13.21-10.17-13.21-1-8.13-1-8.13,5.08-3.05,8.13-11.18,8.13,8.13,10.16,17.28S461.82,512.18,457.75,520.31ZM670,462.18c-3.06,2.35-10.79,10.45-10,31.7.65,16.87,3.78,17.17,6,15.19a1.32,1.32,0,0,1,2.2,1.16c-.43,3.12-2.22,6-8.61.42a2.34,2.34,0,0,1-.77-1.24c-2.29-8.79-1.44-24.53-5.39-37.38-4.06-13.21-9.65-21.85-21.85-23.88S610.71,467,607.66,467,595,459.33,598,455.26L626.89,418A14.52,14.52,0,0,1,639,412.23c3.55.18,7.53,1.74,10.82,6.45,7.12,10.16,31.29,28.57,34.56,34.55C684.79,454,670.64,461.65,670,462.18Z"/></svg>